<svg xmlns="http://www.w3.org/2000/svg" width="38" height="38" viewBox="0 0 38 38" fill="none">
<rect width="38" height="38" rx="10" fill="#1D70B8"/>
<path d="M19.1479 25.9657C16.8847 25.9657 15.041 24.1245 15.041 21.8588C15.041 19.5931 16.8822 17.752 19.1479 17.752C21.4136 17.752 23.2548 19.5931 23.2548 21.8588C23.2548 24.1245 21.4136 25.9657 19.1479 25.9657ZM19.1479 19.4167C17.8002 19.4167 16.7032 20.5137 16.7032 21.8614C16.7032 23.209 17.8002 24.3061 19.1479 24.3061C20.4955 24.3061 21.5926 23.209 21.5926 21.8614C21.5926 20.5137 20.4955 19.4167 19.1479 19.4167Z" fill="white"/>
<path d="M15.2535 32.4737H13.5913V27.707H24.6461V29.3692H15.2535V32.4737Z" fill="#00FFE0"/>
<path d="M5.71346 11.0846C5.71346 11.3081 5.74114 11.5233 5.79751 11.7298C5.85336 11.9364 5.93843 12.1188 6.05271 12.2766C6.16699 12.4345 6.31253 12.5616 6.48984 12.6574C6.66715 12.7532 6.8788 12.8014 7.12375 12.8014C7.36871 12.8014 7.55575 12.764 7.71257 12.6886C7.86938 12.6133 7.99442 12.519 8.0882 12.4063C8.18147 12.2935 8.24706 12.1711 8.28498 12.0399C8.32239 11.9087 8.34136 11.7872 8.34136 11.6755V11.6243H7.00384V10.8187H9.36935V13.6833H8.44385V13.0709C8.37825 13.1729 8.29677 13.2662 8.19992 13.3497C8.10255 13.4338 7.9934 13.505 7.87194 13.5649C7.75049 13.6244 7.61725 13.6715 7.47274 13.7054C7.32822 13.7392 7.17448 13.7566 7.01152 13.7566C6.63025 13.7566 6.29101 13.6874 5.9948 13.5491C5.6986 13.4107 5.44852 13.2201 5.2461 12.9766C5.04317 12.7337 4.88892 12.4493 4.78335 12.1239C4.67778 11.7985 4.625 11.4475 4.625 11.0708C4.625 10.6942 4.68393 10.3462 4.8018 10.0192C4.91966 9.69229 5.08724 9.40839 5.30452 9.16651C5.5218 8.92463 5.78418 8.73399 6.09166 8.59461C6.39913 8.4547 6.74351 8.38501 7.12478 8.38501C7.37281 8.38501 7.60751 8.41371 7.82992 8.47059C8.05233 8.52747 8.25526 8.60895 8.43872 8.71452C8.62218 8.82009 8.78412 8.94769 8.92505 9.09733C9.06597 9.24697 9.18025 9.41249 9.26737 9.59493L8.34187 10.1161C8.28601 10.0044 8.22041 9.90035 8.14508 9.80452C8.06975 9.70869 7.98315 9.62619 7.88475 9.55649C7.78636 9.48731 7.67413 9.43248 7.54756 9.39251C7.42098 9.35253 7.28005 9.33255 7.12478 9.33255C6.87931 9.33255 6.66818 9.38072 6.49086 9.47655C6.31355 9.57238 6.1675 9.69947 6.05374 9.85731C5.93946 10.0151 5.85439 10.1981 5.79853 10.4056C5.74267 10.6132 5.71449 10.8279 5.71449 11.0488V11.0852L5.71346 11.0846Z" fill="white"/>
<path d="M12.7485 8.38403C13.1374 8.38403 13.4859 8.45373 13.7944 8.59363C14.1029 8.73353 14.3648 8.92417 14.58 9.16553C14.7952 9.40741 14.9592 9.69183 15.072 10.0183C15.1852 10.3452 15.2416 10.6957 15.2416 11.0698C15.2416 11.4439 15.1852 11.7975 15.072 12.1229C14.9592 12.4483 14.7952 12.7328 14.58 12.9757C14.3648 13.2186 14.1029 13.4092 13.7944 13.5481C13.4859 13.6865 13.1369 13.7556 12.7485 13.7556C12.36 13.7556 12.008 13.6865 11.7005 13.5481C11.393 13.4097 11.1317 13.2191 10.917 12.9757C10.7017 12.7328 10.5377 12.4483 10.425 12.1229C10.3117 11.7975 10.2554 11.4465 10.2554 11.0698C10.2554 10.6932 10.3117 10.3452 10.425 10.0183C10.5377 9.69132 10.7017 9.40741 10.917 9.16553C11.1322 8.92365 11.393 8.73302 11.7005 8.59363C12.008 8.45373 12.357 8.38403 12.7485 8.38403ZM12.7485 12.8014C12.977 12.8014 13.1779 12.7584 13.3517 12.6723C13.5254 12.5862 13.6719 12.4663 13.7908 12.3131C13.9097 12.1598 13.9999 11.9789 14.0604 11.7699C14.1209 11.5608 14.1516 11.3327 14.1516 11.0847V11.0555C14.1516 10.81 14.1214 10.5825 14.0604 10.3719C13.9994 10.1618 13.9097 9.98034 13.7908 9.82712C13.6719 9.67389 13.5254 9.55449 13.3517 9.46788C13.1779 9.38179 12.977 9.33875 12.7485 9.33875C12.5199 9.33875 12.3185 9.38179 12.1433 9.46788C11.9685 9.55398 11.822 9.67389 11.7041 9.82712C11.5862 9.98034 11.4971 10.1618 11.4361 10.3719C11.3751 10.582 11.3449 10.81 11.3449 11.0555V11.0847C11.3449 11.3327 11.3751 11.5608 11.4361 11.7699C11.4965 11.9789 11.5862 12.1598 11.7041 12.3131C11.822 12.4663 11.9685 12.5857 12.1433 12.6723C12.318 12.7584 12.5199 12.8014 12.7485 12.8014Z" fill="white"/>
<path d="M17.0457 13.6838L15.5698 8.45776H16.7541L17.7637 12.3868H17.8L18.7876 8.45776H19.9575L18.4816 13.6838H17.0457Z" fill="white"/>
<path d="M26.0225 12.802C26.1758 12.802 26.3182 12.7795 26.4509 12.7344C26.5832 12.6893 26.6974 12.6211 26.7933 12.5304C26.8891 12.4392 26.9649 12.3239 27.0213 12.184C27.0772 12.0441 27.1054 11.8796 27.1054 11.69V8.4502H28.1441V11.8468C28.1441 12.1384 28.0913 12.4018 27.9858 12.6375C27.8802 12.8732 27.7331 13.0736 27.545 13.2386C27.357 13.4036 27.133 13.5312 26.8732 13.6214C26.6134 13.7111 26.3295 13.7562 26.021 13.7562C25.7125 13.7562 25.4286 13.7111 25.1688 13.6214C24.909 13.5317 24.6845 13.4041 24.4949 13.2386C24.3053 13.0736 24.1582 12.8732 24.0526 12.6375C23.9471 12.4018 23.8943 12.1384 23.8943 11.8468V8.4502H24.9402V11.69C24.9402 11.8796 24.9679 12.0441 25.0243 12.184C25.0801 12.3239 25.156 12.4392 25.2523 12.5304C25.3481 12.6216 25.4624 12.6898 25.5946 12.7344C25.7268 12.7795 25.8698 12.802 26.023 12.802H26.0225Z" fill="white"/>
<path d="M29.1013 8.45654H30.158V10.7201L32.0239 8.45654H33.325L31.5099 10.5341L33.4414 13.6831H32.213L30.8319 11.3396L30.1575 12.094V13.6831H29.1008V8.45654H29.1013Z" fill="white"/>
<path d="M22.0029 11.8914C21.5461 12.0801 21.0281 11.8643 20.8423 11.4135C20.6556 10.9637 20.8694 10.4397 21.3263 10.2529C21.774 10.0692 22.2941 10.2891 22.4798 10.7398C22.6655 11.1886 22.4507 11.7077 22.0029 11.8914Z" fill="#00FFE0"/>
</svg>