<svg xmlns="http://www.w3.org/2000/svg" width="25" height="46" viewBox="0 0 25 46" fill="none">
  <rect x="1" y="1" width="22.3853" height="43.6442" rx="1" fill="white" stroke="black" stroke-width="2"/>
  <ellipse cx="12.2607" cy="19.6855" rx="4.49561" ry="4.42749" fill="#0B0C0C"/>
  <path d="M22.2056 33.7883C22.2056 38.5283 17.0007 42.3708 12.2607 42.3708C7.52075 42.3708 2.31592 38.5283 2.31592 33.7883C2.31592 29.0483 7.52075 25.2058 12.2607 25.2058C17.0007 25.2058 22.2056 29.0483 22.2056 33.7883Z" fill="#0B0C0C"/>
  <path d="M0 2C0 0.895429 0.895431 0 2 0L22.3853 0C23.4898 0 24.3853 0.895431 24.3853 2V3.0021C24.3853 4.10667 23.4898 5.0021 22.3853 5.0021L2 5.0021C0.89543 5.0021 0 4.10667 0 3.0021L0 2Z" fill="#0B0C0C"/>
  <path d="M0 42.6423C0 41.5378 0.895431 40.6423 2 40.6423L22.3853 40.6423C23.4898 40.6423 24.3853 41.5378 24.3853 42.6423V43.6444C24.3853 44.749 23.4898 45.6444 22.3853 45.6444H2C0.89543 45.6444 0 44.749 0 43.6444L0 42.6423Z" fill="#0B0C0C"/>
  <rect x="0.5" y="0.5" width="23.3853" height="44.6442" rx="1.5" stroke="black"/>
  <path d="M1.84521 31.3713L22.5381 31.3713L22.5381 42.4617H1.84521L1.84521 31.3713Z" fill="#F3F2F1"/>
  <path d="M8.61213 12.1267H4.63184L4.63184 16.0223" stroke="#1D70B8" stroke-width="2"/>
  <path d="M4.63232 23.4874V27.3831H8.61262" stroke="#1D70B8" stroke-width="2"/>
  <path d="M15.9093 12.127H19.8896V16.0226" stroke="#1D70B8" stroke-width="2"/>
  <path d="M19.8896 23.4874V27.3831H15.9093" stroke="#1D70B8" stroke-width="2"/>
  <circle cx="12.252" cy="34.4271" r="2.6192" fill="#005A30"/>
  <path fill-rule="evenodd" clip-rule="evenodd" d="M13.9329 33.6587L11.7143 35.8774L10.5366 34.6997L11.0115 34.2248L11.7143 34.9276L13.458 33.1838L13.9329 33.6587Z" fill="white"/>
</svg>